<?xml version="1.0" encoding="UTF-8"?>
<svg id="Layer_2" data-name="Layer 2" xmlns="http://www.w3.org/2000/svg" viewBox="0 0 174.57 232.75">
  <defs>
    <style>
      .cls-1 {
        fill: #c4af97;
      }
    </style>
  </defs>
  <g id="Layer_1-2" data-name="Layer 1">
    <path class="cls-1" d="M130.42,115.09c-14.08-5.14-28.12-8.54-42.75-11.98-15.99-3.76-44.1-9.79-52.58-24.5-10-17.35-2.11-38.22,15.61-46.8,10.39-5.04,21.12-7.19,32.9-7.56,25.3-.8,49.27,6.83,69.27,22.43l10.38-22.75C135.84,2.98,98.55-3.72,64.74,1.9c-12.94,2.15-24.66,6.26-35.46,13.33C11.73,26.74,1.97,45.83,2.9,66.85c1.16,26.21,19.08,41.86,42.27,50.37,24.39,8.95,43.99,11.11,67.9,18.74,17.19,5.49,33.18,14.4,33.47,34.48.61,42.07-61.75,41.85-89.86,33.35-17.37-5.12-31.95-14.1-45.26-27.21L0,199.4c30.34,30.56,79.25,38.81,119.79,30.06,30.76-6.64,55.48-27.77,54.76-61.17-.61-27.9-19.62-44.26-44.13-53.2Z"/>
  </g>
</svg>